<svg xmlns="http://www.w3.org/2000/svg" viewBox="0 0 64 64"><path d="M6 63a2.002 2.002 0 0 1-2-2V1h46v62z" style="fill:#337fef"/><path style="fill:#e6ecff" d="M8 11h38v44H8z"/><path d="M6 63a2.002 2.002 0 0 1-2-2v-4a2.002 2.002 0 0 1 2-2h48l6.018 4.012L54 63z" style="fill:#fcd354"/><path style="fill:#ffb125" d="m54 63 6.018-3.988L54 55v8zM6 63a2 2 0 0 1-2-2v-6h7v8z"/><path style="fill:#48acff" d="M12 43h8v8h-8zM12 31h8v8h-8zM12 19h8v8h-8zM27 15a7.008 7.008 0 0 1-7-7V7h-8V1h30v6h-8v1a7.008 7.008 0 0 1-7 7z"/><circle cx="27" cy="8" r="3" style="fill:#337fef"/><path d="m60.555 58.168-6-4A1.191 1.191 0 0 0 54 54H8a1 1 0 0 0 0 2h2v6H6a1.001 1.001 0 0 1-1-1V2h6v5a1 1 0 0 0 1 1h7a7.961 7.961 0 0 0 .263 2H8a1 1 0 0 0-1 1v40a1 1 0 0 0 2 0V12h11.082a7.981 7.981 0 0 0 13.835 0H45v39a1 1 0 0 0 2 0V11a1 1 0 0 0-1-1H34.737A7.961 7.961 0 0 0 35 8h7a1 1 0 0 0 1-1V2h6v49a1 1 0 0 0 2 0V1a1 1 0 0 0-1-1H4a1 1 0 0 0-1 1v60a3.003 3.003 0 0 0 3 3h48a1.19 1.19 0 0 0 .555-.168l6-4a1 1 0 0 0 0-1.664zM41 2v4h-7a1 1 0 0 0-1 1v1a6 6 0 0 1-12 0V7a1 1 0 0 0-1-1h-7V2zm12 54v2H12v-2zm-41 6v-2h41v2H12zm43-.869V56.87L58.197 59z" style="fill:#231e23"/><path d="M11 51a1 1 0 0 0 1 1h8a1 1 0 0 0 1-1v-2a1 1 0 0 0-2 0v1h-6v-6h5a1 1 0 0 0 0-2h-6a1 1 0 0 0-1 1z" style="fill:#231e23"/><path d="M22.707 42.293a1 1 0 0 0-1.414 0L17 46.586l-1.293-1.293a1 1 0 0 0-1.414 1.414l2 2a1 1 0 0 0 1.414 0l5-5a1 1 0 0 0 0-1.414zM11 39a1 1 0 0 0 1 1h8a1 1 0 0 0 1-1v-2a1 1 0 0 0-2 0v1h-6v-6h5a1 1 0 0 0 0-2h-6a1 1 0 0 0-1 1z" style="fill:#231e23"/><path d="M22.707 30.293a1 1 0 0 0-1.414 0L17 34.586l-1.293-1.293a1 1 0 0 0-1.414 1.414l2 2a1 1 0 0 0 1.414 0l5-5a1 1 0 0 0 0-1.414zM18 20a1 1 0 0 0 0-2h-6a1 1 0 0 0-1 1v8a1 1 0 0 0 1 1h8a1 1 0 0 0 1-1v-2a1 1 0 0 0-2 0v1h-6v-6z" style="fill:#231e23"/><path d="M22.707 18.293a1 1 0 0 0-1.414 0L17 22.586l-1.293-1.293a1 1 0 0 0-1.414 1.414l2 2a1 1 0 0 0 1.414 0l5-5a1 1 0 0 0 0-1.414zM27 12a4 4 0 1 0-4-4 4.005 4.005 0 0 0 4 4zm0-6a2 2 0 1 1-2 2 2.002 2.002 0 0 1 2-2zM42 18H26a1 1 0 0 0 0 2h16a1 1 0 0 0 0-2zM26 24h11a1 1 0 0 0 0-2H26a1 1 0 0 0 0 2zM26 28h11a1 1 0 0 0 0-2H26a1 1 0 0 0 0 2zM42 30H26a1 1 0 0 0 0 2h16a1 1 0 0 0 0-2zM42 42H26a1 1 0 0 0 0 2h16a1 1 0 0 0 0-2zM42 22h-2a1 1 0 0 0 0 2h2a1 1 0 0 0 0-2zM42 26h-2a1 1 0 0 0 0 2h2a1 1 0 0 0 0-2zM26 36h11a1 1 0 0 0 0-2H26a1 1 0 0 0 0 2zM26 40h11a1 1 0 0 0 0-2H26a1 1 0 0 0 0 2zM42 34h-2a1 1 0 0 0 0 2h2a1 1 0 0 0 0-2zM42 38h-2a1 1 0 0 0 0 2h2a1 1 0 0 0 0-2zM37 46H26a1 1 0 0 0 0 2h11a1 1 0 0 0 0-2zM37 50H26a1 1 0 0 0 0 2h11a1 1 0 0 0 0-2zM42 46h-2a1 1 0 0 0 0 2h2a1 1 0 0 0 0-2zM42 50h-2a1 1 0 0 0 0 2h2a1 1 0 0 0 0-2z" style="fill:#231e23"/></svg>